<?xml version="1.0" encoding="utf-8"?>
<!-- Generator: Adobe Illustrator 21.0.2, SVG Export Plug-In . SVG Version: 6.00 Build 0)  -->
<svg version="1.1" id="Layer_1" xmlns="http://www.w3.org/2000/svg" xmlns:xlink="http://www.w3.org/1999/xlink" x="0px" y="0px"
	 viewBox="0 0 20 20" style="enable-background:new 0 0 20 20;" xml:space="preserve">
<style type="text/css">
	.st0{fill:none;}
	.st1{fill:#FFFFFF;}
	.st2{clip-path:url(#SVGID_2_);}
	.st3{clip-path:url(#SVGID_4_);fill:#FFFFFF;}
	.st4{clip-path:url(#SVGID_6_);}
	.st5{clip-path:url(#SVGID_8_);fill:#FFFFFF;}
	.st6{clip-path:url(#SVGID_10_);}
	.st7{clip-path:url(#SVGID_12_);fill:#FFFFFF;}
	.st8{clip-path:url(#SVGID_14_);}
	.st9{clip-path:url(#SVGID_16_);fill:#FFFFFF;}
	.st10{clip-path:url(#SVGID_18_);}
	.st11{clip-path:url(#SVGID_20_);fill:#FFFFFF;}
	.st12{clip-path:url(#SVGID_22_);}
	.st13{clip-path:url(#SVGID_24_);fill:#FFFFFF;}
	.st14{clip-path:url(#SVGID_26_);}
	.st15{clip-path:url(#SVGID_28_);fill:#FFFFFF;}
	.st16{clip-path:url(#SVGID_30_);}
	.st17{clip-path:url(#SVGID_32_);fill:#FFFFFF;}
</style>
<rect x="-115.8" y="-235.7" class="st0" width="197.2" height="488.1"/>
<g>
	<path class="st1" d="M13,19.3C13,19.3,13,19.3,13,19.3l5.9-2.1c0.1,0,0.2-0.2,0.2-0.3V4.5c0-0.1-0.1-0.2-0.1-0.3
		c-0.1-0.1-0.2-0.1-0.3,0l-1.2,0.6c-0.3-2.3-2.3-4.1-4.6-4.1c-2.4,0-4.4,1.8-4.6,4.1L7,4.2c0,0,0,0,0,0c0,0,0,0,0,0c0,0,0,0,0,0
		c0,0,0,0,0,0c0,0,0,0,0,0c0,0,0,0,0,0c0,0,0,0,0,0c0,0,0,0,0,0c0,0,0,0,0,0c0,0,0,0,0,0L1.1,6.4C1,6.5,0.9,6.6,0.9,6.7v12
		c0,0.1,0,0.2,0.1,0.2C1.1,19,1.2,19,1.3,19l5.1-2.1l6.4,2.4c0,0,0,0,0,0c0,0,0,0,0,0C12.9,19.3,12.9,19.3,13,19.3
		C12.9,19.3,12.9,19.3,13,19.3C13,19.3,13,19.3,13,19.3z M12.9,1.3c2.2,0,4.1,1.8,4.1,4.1c0,0.1,0,0.1,0,0.2c-0.1,1-0.8,2.7-2.1,5
		c0,0,0,0,0,0.1c0,0-0.1,0.1-0.1,0.1c0,0.1-0.1,0.1-0.1,0.2c0,0,0,0,0,0c-0.7,1.2-1.3,2.2-1.7,2.7c-0.4-0.6-1.2-1.8-1.9-3.2
		C9.6,8.1,8.8,6.3,8.8,5.4C8.8,3.1,10.6,1.3,12.9,1.3z M12.6,16.6v2l-5.9-2.2v-4.2c0-0.2-0.1-0.3-0.3-0.3c-0.2,0-0.3,0.1-0.3,0.3
		v4.2l-4.7,1.9v-6.3c0,0,0.1-0.1,0.1-0.1c0.1-0.1,0.1-0.3,0-0.4c0-0.1-0.1-0.1-0.2-0.1V6.9l5.1-2v1.8C6.6,6.9,6.7,7,6.9,7
		c0.2,0,0.3-0.1,0.3-0.3V5l1,0.5c0,0,0,0.1,0,0.1c0,0,0,0,0,0c0,0.1,0,0.1,0,0.2c0,0,0,0,0,0.1c0,0.1,0,0.1,0,0.2
		c0.2,0.8,0.6,1.9,1.3,3.2c0,0.1,0.1,0.1,0.1,0.2c0,0,0,0.1,0.1,0.1c1.2,2.4,2.8,4.8,2.9,4.9c0.1,0.1,0.1,0.1,0.2,0.1
		c0,0,0.1,0,0.1,0c0,0,0.1-0.1,0.1-0.1c0.1-0.2,1.7-2.5,2.9-4.9c0,0,0-0.1,0.1-0.1c0-0.1,0.1-0.1,0.1-0.2c0.7-1.4,1.1-2.5,1.3-3.3
		c0,0,0-0.1,0-0.1c0,0,0-0.1,0-0.1c0-0.1,0-0.1,0-0.2c0,0,0,0,0,0c0,0,0-0.1,0-0.1l1-0.5v6.7c0,0-0.1,0.1-0.1,0.1
		c-0.1,0.1-0.1,0.3,0,0.4c0,0,0.1,0.1,0.2,0.1v4.4l-5.3,1.9v-2c0-0.2-0.1-0.3-0.3-0.3C12.7,16.3,12.6,16.4,12.6,16.6z"/>
	<g>
		<defs>
			<path id="SVGID_1_" d="M12.8,8.1c1.3,0,2.3-1,2.3-2.3c0-1.3-1-2.3-2.3-2.3c-1.3,0-2.3,1-2.3,2.3C10.6,7.1,11.6,8.1,12.8,8.1
				 M12.8,4.1c0.9,0,1.7,0.8,1.7,1.7c0,0.9-0.8,1.7-1.7,1.7c-0.9,0-1.7-0.8-1.7-1.7C11.1,4.9,11.9,4.1,12.8,4.1"/>
		</defs>
		<use xlink:href="#SVGID_1_"  style="overflow:visible;fill-rule:evenodd;clip-rule:evenodd;fill:#FFFFFF;"/>
		<clipPath id="SVGID_2_">
			<use xlink:href="#SVGID_1_"  style="overflow:visible;"/>
		</clipPath>
		<g class="st2">
			<defs>
				<rect id="SVGID_3_" x="0.9" y="0.6" width="18.3" height="18.6"/>
			</defs>
			<use xlink:href="#SVGID_3_"  style="overflow:visible;fill:#FFFFFF;"/>
			<clipPath id="SVGID_4_">
				<use xlink:href="#SVGID_3_"  style="overflow:visible;"/>
			</clipPath>
			<rect x="9.8" y="2.7" class="st3" width="6.1" height="6.2"/>
		</g>
	</g>
	<g>
		<defs>
			<path id="SVGID_5_" d="M16.8,12.9c-0.2,0.1-0.3,0.3-0.5,0.4c-0.1,0.1-0.1,0.2-0.1,0.4c0,0.1,0.1,0.1,0.2,0.1c0,0,0.1,0,0.1,0
				c0.2-0.1,0.3-0.2,0.5-0.4c0.1-0.1,0.1-0.3,0.1-0.4C17.1,12.9,16.9,12.8,16.8,12.9"/>
		</defs>
		<use xlink:href="#SVGID_5_"  style="overflow:visible;fill-rule:evenodd;clip-rule:evenodd;fill:#FFFFFF;"/>
		<clipPath id="SVGID_6_">
			<use xlink:href="#SVGID_5_"  style="overflow:visible;"/>
		</clipPath>
		<g class="st4">
			<defs>
				<rect id="SVGID_7_" x="-90.4" y="-225.2" width="197.2" height="488.1"/>
			</defs>
			<use xlink:href="#SVGID_7_"  style="overflow:visible;fill:#FFFFFF;"/>
			<clipPath id="SVGID_8_">
				<use xlink:href="#SVGID_7_"  style="overflow:visible;"/>
			</clipPath>
			<rect x="15.4" y="12.1" class="st5" width="2.5" height="2.5"/>
		</g>
	</g>
	<g>
		<defs>
			<path id="SVGID_9_" d="M2.8,10.1c-0.1,0.1-0.3,0.2-0.5,0.3c-0.1,0.1-0.1,0.3-0.1,0.4c0,0.1,0.1,0.1,0.2,0.1c0,0,0.1,0,0.1-0.1
				c0.1-0.1,0.3-0.2,0.4-0.3c0.1-0.1,0.2-0.3,0.1-0.4C3.1,10,3,10,2.8,10.1"/>
		</defs>
		<use xlink:href="#SVGID_9_"  style="overflow:visible;fill-rule:evenodd;clip-rule:evenodd;fill:#FFFFFF;"/>
		<clipPath id="SVGID_10_">
			<use xlink:href="#SVGID_9_"  style="overflow:visible;"/>
		</clipPath>
		<g class="st6">
			<defs>
				<rect id="SVGID_11_" x="-90.4" y="-225.2" width="197.2" height="488.1"/>
			</defs>
			<use xlink:href="#SVGID_11_"  style="overflow:visible;fill:#FFFFFF;"/>
			<clipPath id="SVGID_12_">
				<use xlink:href="#SVGID_11_"  style="overflow:visible;"/>
			</clipPath>
			<rect x="1.5" y="9.3" class="st7" width="2.5" height="2.5"/>
		</g>
	</g>
	<g>
		<defs>
			<path id="SVGID_13_" d="M5,9.4c-0.2,0-0.3,0.1-0.5,0.2C4.4,9.7,4.3,9.8,4.3,10c0,0.1,0.1,0.2,0.2,0.2c0,0,0,0,0.1,0
				c0.2-0.1,0.3-0.1,0.4-0.2c0.1,0,0.2-0.2,0.2-0.4C5.2,9.5,5.1,9.4,5,9.4"/>
		</defs>
		<use xlink:href="#SVGID_13_"  style="overflow:visible;fill-rule:evenodd;clip-rule:evenodd;fill:#FFFFFF;"/>
		<clipPath id="SVGID_14_">
			<use xlink:href="#SVGID_13_"  style="overflow:visible;"/>
		</clipPath>
		<g class="st8">
			<defs>
				<rect id="SVGID_15_" x="-90.4" y="-225.2" width="197.2" height="488.1"/>
			</defs>
			<use xlink:href="#SVGID_15_"  style="overflow:visible;fill:#FFFFFF;"/>
			<clipPath id="SVGID_16_">
				<use xlink:href="#SVGID_15_"  style="overflow:visible;"/>
			</clipPath>
			<rect x="3.5" y="8.6" class="st9" width="2.5" height="2.3"/>
		</g>
	</g>
	<g>
		<defs>
			<path id="SVGID_17_" d="M10,12.4C10,12.3,10,12.3,10,12.4c-0.2-0.2-0.3-0.2-0.3-0.3c0,0,0,0,0,0c0,0,0,0,0-0.1
				c-0.1-0.1-0.3-0.1-0.4,0c-0.1,0.1-0.1,0.3,0,0.4c0,0,0,0,0.1,0.1c0.1,0.1,0.2,0.2,0.3,0.3c0,0,0.1,0,0.1,0.1c0,0,0.1,0.1,0.2,0.1
				c0.1,0,0.2,0,0.2-0.1C10.1,12.6,10.1,12.5,10,12.4"/>
		</defs>
		<use xlink:href="#SVGID_17_"  style="overflow:visible;fill-rule:evenodd;clip-rule:evenodd;fill:#FFFFFF;"/>
		<clipPath id="SVGID_18_">
			<use xlink:href="#SVGID_17_"  style="overflow:visible;"/>
		</clipPath>
		<g class="st10">
			<defs>
				<rect id="SVGID_19_" x="-90.4" y="-225.2" width="197.2" height="488.1"/>
			</defs>
			<use xlink:href="#SVGID_19_"  style="overflow:visible;fill:#FFFFFF;"/>
			<clipPath id="SVGID_20_">
				<use xlink:href="#SVGID_19_"  style="overflow:visible;"/>
			</clipPath>
			<rect x="8.4" y="11.1" class="st11" width="2.5" height="2.5"/>
		</g>
	</g>
	<g>
		<defs>
			<path id="SVGID_21_" d="M7,9.6C6.8,9.5,6.7,9.5,6.5,9.4c-0.1,0-0.3,0.1-0.3,0.2c0,0.2,0.1,0.3,0.2,0.4c0.1,0,0.3,0.1,0.4,0.2
				c0,0,0.1,0,0.1,0c0.1,0,0.2-0.1,0.2-0.2C7.2,9.9,7.1,9.7,7,9.6"/>
		</defs>
		<use xlink:href="#SVGID_21_"  style="overflow:visible;fill-rule:evenodd;clip-rule:evenodd;fill:#FFFFFF;"/>
		<clipPath id="SVGID_22_">
			<use xlink:href="#SVGID_21_"  style="overflow:visible;"/>
		</clipPath>
		<g class="st12">
			<defs>
				<rect id="SVGID_23_" x="-90.4" y="-225.2" width="197.2" height="488.1"/>
			</defs>
			<use xlink:href="#SVGID_23_"  style="overflow:visible;fill:#FFFFFF;"/>
			<clipPath id="SVGID_24_">
				<use xlink:href="#SVGID_23_"  style="overflow:visible;"/>
			</clipPath>
			<rect x="5.4" y="8.6" class="st13" width="2.5" height="2.3"/>
		</g>
	</g>
	<g>
		<defs>
			<path id="SVGID_25_" d="M8.4,10.4c-0.1-0.1-0.3-0.1-0.4,0c-0.1,0.1-0.1,0.3,0,0.4c0.1,0.1,0.3,0.3,0.4,0.4
				c0.1,0.1,0.1,0.1,0.2,0.1c0.1,0,0.1,0,0.2-0.1c0.1-0.1,0.1-0.3,0-0.4C8.7,10.7,8.5,10.6,8.4,10.4"/>
		</defs>
		<use xlink:href="#SVGID_25_"  style="overflow:visible;fill-rule:evenodd;clip-rule:evenodd;fill:#FFFFFF;"/>
		<clipPath id="SVGID_26_">
			<use xlink:href="#SVGID_25_"  style="overflow:visible;"/>
		</clipPath>
		<g class="st14">
			<defs>
				<rect id="SVGID_27_" x="-90.4" y="-225.2" width="197.2" height="488.1"/>
			</defs>
			<use xlink:href="#SVGID_27_"  style="overflow:visible;fill:#FFFFFF;"/>
			<clipPath id="SVGID_28_">
				<use xlink:href="#SVGID_27_"  style="overflow:visible;"/>
			</clipPath>
			<rect x="7.1" y="9.6" class="st15" width="2.5" height="2.5"/>
		</g>
	</g>
	<g>
		<defs>
			<path id="SVGID_29_" d="M11.6,13.6c-0.1-0.1-0.2-0.1-0.2-0.2c-0.1-0.1-0.3,0-0.4,0.1c-0.1,0.1,0,0.3,0.1,0.4
				c0.1,0.1,0.2,0.1,0.2,0.2c0,0,0.1,0,0.1,0c0.1,0,0.2,0,0.2-0.1C11.7,13.8,11.7,13.6,11.6,13.6"/>
		</defs>
		<use xlink:href="#SVGID_29_"  style="overflow:visible;fill-rule:evenodd;clip-rule:evenodd;fill:#FFFFFF;"/>
		<clipPath id="SVGID_30_">
			<use xlink:href="#SVGID_29_"  style="overflow:visible;"/>
		</clipPath>
		<g class="st16">
			<defs>
				<rect id="SVGID_31_" x="-90.4" y="-225.2" width="197.2" height="488.1"/>
			</defs>
			<use xlink:href="#SVGID_31_"  style="overflow:visible;fill:#FFFFFF;"/>
			<clipPath id="SVGID_32_">
				<use xlink:href="#SVGID_31_"  style="overflow:visible;"/>
			</clipPath>
			<rect x="10.1" y="12.5" class="st17" width="2.3" height="2.3"/>
		</g>
	</g>
</g>
</svg>
