<?xml version="1.0" encoding="utf-8"?>
<!-- Generator: Adobe Illustrator 21.0.2, SVG Export Plug-In . SVG Version: 6.00 Build 0)  -->
<svg version="1.1" id="Layer_1" xmlns="http://www.w3.org/2000/svg" xmlns:xlink="http://www.w3.org/1999/xlink" x="0px" y="0px"
	 viewBox="0 0 20 20" style="enable-background:new 0 0 20 20;" xml:space="preserve">
<style type="text/css">
	.st0{fill:#FFFFFF;}
</style>
<path class="st0" d="M15.5,0.5h-11c-0.2,0-0.4,0.2-0.4,0.4v1.1v0.1l0,0L1.8,8.1v0.1v0.1l0,0l0,0v10.9c0,0.2,0.2,0.4,0.4,0.4h15.8
	c0.2,0,0.4-0.2,0.4-0.4v-11c0,0,0,0,0-0.1V8L16,2.1l0,0V2v-1C15.9,0.7,15.8,0.5,15.5,0.5z M4.8,1.7V1.6V1.4h0.3h9.8h0.3v0.3v0.1v0.3
	h-0.3H5.1H4.8V1.7z M13.2,7.9h-2.5h-0.3V7.6V3V2.8h0.3h1.8h0.2V3l0.7,4.6v0.3C13.4,7.9,13.2,7.9,13.2,7.9z M13.6,8.6L13.4,9
	c-0.3,0.5-0.8,0.8-1.4,0.8S10.8,9.5,10.5,9l-0.2-0.4h0.4h2.3H13.6z M6.8,8.6h2.3h0.4L9.4,9C9.2,9.5,8.6,9.8,8.1,9.8
	C7.5,9.8,6.9,9.5,6.6,9L6.4,8.6H6.8z M6.5,7.9V7.6L7.2,3V2.8h0.2h1.9h0.3v0.3v4.6V8H9.4H6.7H6.5V7.9z M2.8,7.5l1.8-4.6l0.1-0.2h0.2
	h1.2h0.3V3L5.7,7.6v0.2H5.5H3.1H2.7L2.8,7.5z M2.9,8.6h2.3h0.4L5.5,9C5.2,9.5,4.7,9.8,4.1,9.8S3,9.5,2.7,9L2.5,8.6H2.9z M11.4,13.2
	v5.3v0.3h-0.3H8.9H8.6v-0.3v-5.3v-0.3h0.3h2.3h0.2L11.4,13.2z M17.5,10.1v8.3v0.3h-0.3h-4.8h-0.3v-0.3v-5.9c0-0.2-0.2-0.4-0.4-0.4
	H8.2c-0.2,0-0.4,0.2-0.4,0.4v5.9v0.3H7.6H2.8H2.5v-0.3v-7.9V10l0.4,0.3c0.4,0.2,0.8,0.3,1.2,0.3c0.7,0,1.3-0.3,1.8-0.8l0.2-0.2
	l0.2,0.2c0.4,0.5,1.1,0.8,1.8,0.8c1,0,1.8-1.1,1.8-1.1s0.6,1,2,1c0.7,0,1.3-0.3,1.8-0.8l0.2-0.2c0,0,0.6,1,2,1
	c0.4,0,0.8-0.1,1.2-0.3l0.4-0.2L17.5,10.1z M17.3,9c-0.3,0.5-0.8,0.8-1.4,0.8S14.8,9.5,14.5,9l-0.2-0.4h0.4h2.4h0.4L17.3,9z
	 M17.2,7.5l0.1,0.3h-0.4h-2.4h-0.2V7.6L13.6,3V2.7h0.3h1.4l0.1,0.2L17.2,7.5z"/>
</svg>
