<?xml version="1.0" encoding="utf-8"?>
<!-- Generator: Adobe Illustrator 21.0.2, SVG Export Plug-In . SVG Version: 6.00 Build 0)  -->
<svg version="1.1" id="Layer_1" xmlns="http://www.w3.org/2000/svg" xmlns:xlink="http://www.w3.org/1999/xlink" x="0px" y="0px"
	 viewBox="0 0 11 17" style="enable-background:new 0 0 11 17;" xml:space="preserve">
<style type="text/css">
	.st0{fill:#FFFFFF;}
</style>
<path class="st0" d="M1.1,1.8l6.6,6.6l-6.6,6.6C1,15,0.9,15.2,0.9,15.3c0,0.1,0.1,0.3,0.2,0.4l0.8,0.8c0.1,0.1,0.3,0.2,0.4,0.2
	c0.1,0,0.3-0.1,0.4-0.2l7.8-7.8c0.1-0.1,0.2-0.3,0.2-0.4c0-0.1-0.1-0.3-0.2-0.4L2.7,0.2C2.6,0.1,2.4,0,2.3,0C2.1,0,2,0.1,1.9,0.2
	L1.1,1C1,1.1,0.9,1.2,0.9,1.4C0.9,1.5,1,1.7,1.1,1.8z"/>
</svg>
